HIERARCHY
ROOT root
{
	OFFSET	0	13.1	24.9
	CHANNELS 6  Xposition Yposition Zposition Xrotation Yrotation Zrotation
	JOINT spine_1
	{
		OFFSET	0	9.99999	0
		CHANNELS 3  Xrotation Yrotation Zrotation
		JOINT spine_2
		{
			OFFSET	0	112	-10
			CHANNELS 3  Xrotation Yrotation Zrotation
			JOINT spine_3
			{
				OFFSET	0	206.5	19.3
				CHANNELS 3  Xrotation Yrotation Zrotation
				JOINT spine_4
				{
					OFFSET	0	110.4	14.6
					CHANNELS 3  Xrotation Yrotation Zrotation
					JOINT neck_1
					{
						OFFSET	0	71.8	-50.3
						CHANNELS 3  Xrotation Yrotation Zrotation
						JOINT neck_2
						{
							OFFSET	0	86.2	-25.8
							CHANNELS 3  Xrotation Yrotation Zrotation
							JOINT head_ee
							{
								OFFSET	0	179.8	-8.7
								CHANNELS 3  Xrotation Yrotation Zrotation
								End Site
								{
									OFFSET	1	0	0
								}
							}
						}
					}
					JOINT left_clavicle
					{
						OFFSET	-43.2	22.4	-70.8
						CHANNELS 3  Xrotation Yrotation Zrotation
						JOINT left_shoulder
						{
							OFFSET	-93.9	-5.79999	48.7
							CHANNELS 3  Xrotation Yrotation Zrotation
							JOINT left_elbow
							{
								OFFSET	-291.4	-30.8	15.2
								CHANNELS 3  Xrotation Yrotation Zrotation
								JOINT left_lowarm_twist
								{
									OFFSET	-110.7	-3.89999	13.6
									CHANNELS 3  Xrotation Yrotation Zrotation
									JOINT left_hand
									{
										OFFSET	-110.7	-3.89999	13.6
										CHANNELS 3  Xrotation Yrotation Zrotation
										JOINT left_ee
										{
											OFFSET	-80.8	-5.10001	12.1
											CHANNELS 3  Xrotation Yrotation Zrotation
											End Site
											{
												OFFSET	1	0	0
											}
										}
									}
								}
							}
						}
					}
					JOINT right_clavicle
					{
						OFFSET	43.2	22.4	-70.8
						CHANNELS 3  Xrotation Yrotation Zrotation
						JOINT right_shoulder
						{
							OFFSET	93.9	-5.79999	48.7
							CHANNELS 3  Xrotation Yrotation Zrotation
							JOINT right_elbow
							{
								OFFSET	291.4	-30.8	15.2
								CHANNELS 3  Xrotation Yrotation Zrotation
								JOINT right_lowarm_twist
								{
									OFFSET	110.7	-3.89999	13.6
									CHANNELS 3  Xrotation Yrotation Zrotation
									JOINT right_hand
									{
										OFFSET	110.7	-3.89999	13.6
										CHANNELS 3  Xrotation Yrotation Zrotation
										JOINT right_ee
										{
											OFFSET	80.8	-5.10001	12.1
											CHANNELS 3  Xrotation Yrotation Zrotation
											End Site
											{
												OFFSET	1	0	0
											}
										}
									}
								}
							}
						}
					}
				}
			}
		}
	}
	JOINT left_hip
	{
		OFFSET	-82.8	-127.5	0.300001
		CHANNELS 3  Xrotation Yrotation Zrotation
		JOINT left_knee
		{
			OFFSET	-28.2	-396.7	2.2
			CHANNELS 3  Xrotation Yrotation Zrotation
			JOINT left_ankle
			{
				OFFSET	-11.7	-411.3	35.4
				CHANNELS 3  Xrotation Yrotation Zrotation
				JOINT left_toes
				{
					OFFSET	0	-60	-88.6
					CHANNELS 3  Xrotation Yrotation Zrotation
					JOINT left_foot_ee
					{
						OFFSET	-22.5	-16.5	-42.2
						CHANNELS 3  Xrotation Yrotation Zrotation
						End Site
						{
							OFFSET	1	0	0
						}
					}
				}
			}
		}
	}
	JOINT right_hip
	{
		OFFSET	82.8	-127.5	0.300001
		CHANNELS 3  Xrotation Yrotation Zrotation
		JOINT right_knee
		{
			OFFSET	28.2	-396.7	2.2
			CHANNELS 3  Xrotation Yrotation Zrotation
			JOINT right_ankle
			{
				OFFSET	11.7	-411.3	35.4
				CHANNELS 3  Xrotation Yrotation Zrotation
				JOINT right_toes
				{
					OFFSET	0	-60	-88.6
					CHANNELS 3  Xrotation Yrotation Zrotation
					JOINT right_foot_ee
					{
						OFFSET	22.5	-16.5	-42.2
						CHANNELS 3  Xrotation Yrotation Zrotation
						End Site
						{
							OFFSET	1	0	0
						}
					}
				}
			}
		}
	}
}
MOTION
Frames: 5
Frame Time: 0.02
1214.58 696.438 -1436.63 -12.4765 73.1268 4.796 0.556622 0.0613193 4.22616 0.566532 -0.207483 4.22152 0.553866 -1.05256 4.09367 0.530702 -0.393431 4.20828 0.935544 7.85856 -8.4805 1.65134 20.9032 -8.63138 -0.0 0.0 -0.0 0.759013 19.1891 3.37188 24.8126 -44.2139 51.3616 2.04313 -45.3395 0.853467 -64.8157 -5.88701 5.22569 -6.33056 25.8916 -26.2432 -0.0 0.0 -0.0 10.0719 2.75919 -19.9176 -25.5298 -10.7867 -65.8523 0.191418 5.4169 -0.0090553 13.8876 -0.2787 1.74779 -0.895313 -6.69038 3.04613 0.0 0.0 0.0 -12.4242 -6.164 13.5151 0.291082 -0.0120956 -0.043031 42.6962 17.6411 -5.216 -35.133 0.0 0.0 -0.0 0.0 -0.0 35.3609 29.9572 -1.84404 -6.86241 -0.221113 -1.02934 1.54926 -16.9183 0.228409 -19.3934 0.0 0.0 0.0 0.0 0.0 
1197.28 691.174 -1443.75 -10.491 73.3488 2.52549 0.537566 0.18725 4.30428 0.547866 -0.0867631 4.30747 0.54435 -0.95206 4.20203 0.519825 -0.277124 4.29944 1.68724 7.81989 -8.60596 2.45658 20.9358 -8.93706 -0.0 0.0 -0.0 -0.600375 20.4928 1.5144 25.7413 -44.0818 54.7472 2.04475 -45.3622 0.854621 -65.7385 -6.00382 5.2437 -5.93455 25.4146 -24.1317 -0.0 0.0 -0.0 10.3363 3.22108 -20.4922 -25.1594 -10.6903 -66.2254 0.195082 5.51994 -0.00940444 13.5632 -0.277054 1.70639 -1.26654 -14.2078 2.07155 0.0 0.0 0.0 -13.3317 -7.81264 13.9412 -0.29972 0.0122254 0.0443703 42.9079 19.1773 -5.26832 -30.6829 0.0 0.0 -0.0 0.0 -0.0 35.7663 31.1807 -2.84793 -9.35251 -0.270636 -1.40821 -5.15372 -13.702 -0.765488 -21.6885 0.0 0.0 0.0 0.0 0.0 
1177.81 691.502 -1453.13 -8.55833 73.1762 0.633914 0.504059 0.414937 4.2676 0.514177 0.142792 4.28532 0.52833 -0.723308 4.22635 0.503414 -0.0473962 4.28743 1.2135 7.38294 -8.99187 1.96076 20.4874 -9.29715 -0.0 0.0 -0.0 -1.98267 20.1005 -0.56268 22.6573 -46.1998 54.8366 1.92498 -43.6341 0.770662 -65.8418 -6.0169 5.2456 -5.6379 24.4902 -23.0105 -0.0 0.0 -0.0 10.4125 1.51847 -20.5862 -24.3661 -10.4645 -65.7118 0.211984 5.99485 -0.0111001 13.8135 -0.278345 1.73834 -1.25983 -15.5927 1.40616 0.0 0.0 0.0 -13.4745 -8.63698 13.4868 -4.16154 0.148833 0.621188 42.0042 16.6626 -5.13723 -28.8373 0.0 0.0 -0.0 0.0 -0.0 34.5809 32.853 -3.35675 -10.438 -0.287061 -1.57397 -3.96103 -11.7212 -0.585561 -22.1068 0.0 0.0 0.0 0.0 0.0 
1156.94 690.391 -1459.07 -7.33895 73.4886 -0.518737 0.473891 0.675282 4.24853 0.483839 0.403823 4.2828 0.518017 -0.467182 4.27637 0.492569 0.21341 4.29648 0.171859 6.98789 -8.27809 0.763333 19.1946 -8.3145 -0.0 0.0 -0.0 -2.5098 20.8215 -1.20578 21.8822 -47.0142 56.513 1.8975 -43.223 0.751771 -66.1748 -6.05912 5.25155 -5.08884 23.8376 -20.0847 -0.0 0.0 -0.0 10.506 0.0576929 -20.7074 -23.0712 -10.2394 -65.4359 0.218756 6.18489 -0.0118185 14.0553 -0.27946 1.76921 -1.24941 -18.3585 0.102696 0.0 0.0 0.0 -13.2513 -9.2942 13.5369 -7.54932 0.236419 1.13364 41.9753 18.7135 -5.17687 -25.2371 0.0 0.0 -0.0 0.0 -0.0 33.5041 34.1153 -3.8384 -11.7183 -0.302392 -1.76981 -3.80386 -11.8713 -0.562239 -23.1854 0.0 0.0 0.0 0.0 0.0 
1139.83 693.239 -1467.03 -8.42201 73.5834 0.454612 0.479723 0.834262 4.20354 0.489374 0.565337 4.248 0.535465 -0.300202 4.27487 0.51017 0.37807 4.2687 0.511958 6.05559 -9.45855 1.17093 18.5167 -9.76723 -0.0 0.0 -0.0 -3.52387 20.2222 -2.80761 19.1588 -47.8727 56.8598 1.69879 -40.0783 0.619665 -66.3013 -6.07517 5.25375 -4.55716 22.8751 -17.4965 -0.0 0.0 -0.0 10.4276 -1.63182 -20.4418 -20.9565 -9.70123 -65.8459 0.20957 5.92705 -0.0108493 13.7702 -0.278132 1.73281 -1.5907 -24.2229 -0.556228 0.0 0.0 0.0 -10.5095 -9.80798 13.337 -14.5096 0.320626 2.19765 40.7194 17.7131 -5.04455 -24.497 0.0 0.0 -0.0 0.0 -0.0 32.2363 34.8497 -3.89163 -12.1257 -0.306352 -1.83219 -0.276362 -8.74371 -0.0404704 -22.9036 0.0 0.0 0.0 0.0 0.0 
